<?xml version="1.0" standalone="no"?>
<!DOCTYPE svg PUBLIC "-//W3C//DTD SVG 20010904//EN"
 "http://www.w3.org/TR/2001/REC-SVG-20010904/DTD/svg10.dtd">
<svg version="1.0" xmlns="http://www.w3.org/2000/svg"
 width="720.000000pt" height="720.000000pt" viewBox="0 0 720.000000 720.000000"
 preserveAspectRatio="xMidYMid meet">
<metadata>
Created by potrace 1.11, written by Peter Selinger 2001-2013
</metadata>
<g transform="translate(0.000000,720.000000) scale(0.100000,-0.100000)"
fill="#000000" stroke="none">
<path d="M0 5938 l1 -1263 82 -73 c45 -40 105 -83 132 -96 69 -32 154 -104
172 -146 11 -24 17 -85 20 -199 5 -146 9 -171 30 -220 26 -59 37 -111 23 -111
-15 0 -49 41 -70 85 -14 28 -20 62 -20 106 0 92 -18 246 -31 272 -20 39 -62
76 -98 88 -20 7 -78 31 -129 55 -51 24 -97 44 -103 44 -5 0 -9 -770 -9 -2031
l0 -2030 42 5 c52 7 203 23 278 30 30 3 87 6 125 8 58 1 71 -1 73 -15 4 -18
-163 -187 -235 -240 -52 -37 -56 -57 -10 -57 29 1 30 2 15 14 -16 12 -6 24 98
122 64 60 122 112 128 116 7 4 31 2 54 -4 26 -6 63 -7 99 -2 l58 9 -85 5 -85
5 -3 34 c-3 32 3 82 68 561 17 118 32 231 34 250 3 19 12 89 20 155 9 66 25
190 37 275 21 170 47 358 55 405 25 147 107 716 134 925 5 41 12 86 15 100 3
14 12 81 20 150 8 69 33 260 55 425 22 165 62 485 90 710 73 600 93 744 146
1035 14 74 34 182 44 240 40 226 142 676 180 794 5 17 21 72 36 121 33 114
126 367 171 465 20 41 41 90 49 108 l14 32 -860 0 -860 0 0 -1262z m542 -2344
c4 -16 12 -49 18 -74 6 -25 27 -76 46 -113 30 -58 35 -76 32 -124 -3 -61 -23
-83 -33 -36 -14 69 -26 100 -45 120 -35 39 -62 101 -67 161 -8 88 31 141 49
66z m-72 -889 c4 -54 2 -59 -15 -45 -16 13 -20 47 -9 75 9 22 22 6 24 -30z"/>
<path d="M2436 7138 c3 -35 10 -89 15 -122 5 -36 5 -66 -1 -76 -7 -13 -6 -20
4 -23 8 -3 17 -16 20 -29 6 -28 1 38 -16 195 -6 64 -16 117 -20 117 -4 0 -5
-28 -2 -62z"/>
<path d="M2500 7153 c0 -105 79 -503 99 -503 4 0 25 100 46 223 21 122 42 230
47 240 6 11 5 17 -2 17 -6 0 -18 16 -27 35 l-17 35 -73 0 -73 0 0 -47z"/>
<path d="M5267 7125 c-20 -41 -42 -75 -48 -75 -6 0 -8 -7 -5 -17 4 -9 13 -122
22 -252 8 -129 16 -236 18 -238 4 -5 63 201 90 317 27 116 46 240 46 301 l0
39 -43 0 -43 0 -37 -75z"/>
<path d="M5463 7165 c0 -22 2 -30 4 -17 2 12 2 30 0 40 -3 9 -5 -1 -4 -23z"/>
<path d="M6186 7158 c3 -24 7 -48 9 -55 2 -6 0 -40 -5 -75 -14 -96 -42 -372
-39 -383 1 -5 0 -17 -3 -25 -10 -25 -47 -488 -58 -725 -12 -243 -29 -446 -59
-695 -11 -91 -25 -203 -31 -250 -5 -47 -17 -125 -25 -175 -8 -49 -17 -110 -20
-135 -3 -25 -13 -83 -21 -130 -30 -170 -46 -266 -54 -320 -32 -239 -79 -639
-120 -1030 -6 -52 -12 -113 -15 -135 -9 -79 -37 -352 -45 -440 -5 -49 -15
-169 -24 -265 -9 -96 -18 -186 -21 -200 -3 -14 -10 -86 -16 -160 -6 -74 -12
-146 -14 -160 -32 -286 -64 -981 -67 -1468 -1 -156 -5 -285 -8 -287 -8 -5 -13
53 -35 375 -8 124 -20 299 -26 390 -23 351 -26 1340 -6 2100 3 120 2 162 -2
110 -9 -94 -17 -113 -109 -268 -136 -228 -294 -400 -505 -550 -113 -80 -340
-230 -474 -313 -40 -24 -141 -88 -225 -143 -84 -54 -191 -117 -237 -139 -83
-39 -86 -40 -174 -34 -113 6 -152 26 -502 252 -44 28 -129 80 -190 115 -299
172 -547 360 -662 502 -95 118 -250 389 -339 593 -57 133 -54 127 -70 114 -8
-6 -17 -9 -20 -6 -3 3 -9 54 -14 114 -7 86 -8 66 -4 -97 5 -225 14 -408 44
-900 32 -520 31 -512 115 -1210 33 -279 42 -358 90 -825 16 -150 23 -197 21
-135 -2 52 -11 173 -21 268 -16 160 -16 179 -1 237 23 93 21 176 -5 209 -24
31 -30 21 73 133 37 41 72 95 101 155 60 126 79 185 142 459 7 31 10 69 7 84
-3 18 -1 26 5 22 6 -4 13 2 16 13 3 13 1 18 -5 13 -8 -4 -9 5 -3 28 4 19 7 42
7 52 -1 10 4 15 10 11 6 -4 8 1 4 12 -6 20 19 62 30 51 4 -4 1 -13 -6 -22 -7
-9 -11 -18 -8 -21 3 -2 13 8 23 23 12 18 14 28 6 31 -13 4 -5 22 10 22 6 0 7
-5 4 -10 -3 -6 -1 -10 4 -10 6 0 11 6 11 14 0 8 5 18 10 21 6 4 10 -14 10 -47
0 -47 -3 -54 -20 -55 -21 -2 -27 11 -10 22 6 3 10 14 10 23 0 13 -3 11 -16 -6
-10 -14 -13 -30 -8 -40 4 -9 8 -19 8 -22 1 -3 11 -16 24 -30 12 -13 22 -29 22
-34 0 -6 -5 -4 -10 4 -5 8 -10 11 -10 7 0 -20 43 -68 57 -63 16 6 126 -78 116
-88 -4 -3 1 -6 11 -6 21 0 67 -30 61 -40 -2 -4 5 -16 18 -26 18 -16 19 -16 8
-1 -7 9 -10 17 -7 17 14 0 215 -127 211 -134 -3 -3 -2 -4 2 -1 3 3 40 -14 82
-37 198 -107 251 -140 251 -156 0 -13 2 -14 8 -4 12 19 82 -36 107 -84 11 -21
23 -42 28 -45 4 -3 8 -22 9 -42 1 -21 5 -34 11 -30 6 3 7 1 4 -4 -4 -6 0 -36
8 -67 8 -32 13 -77 11 -102 -3 -24 -1 -42 4 -39 5 3 11 -25 15 -62 9 -93 14
-107 30 -93 10 9 20 42 30 105 6 37 19 64 27 59 6 -4 8 1 4 14 -11 33 22 138
75 241 48 91 78 131 102 131 6 0 2 -7 -9 -15 -17 -13 -16 -13 13 -3 21 8 28
15 21 20 -7 4 -10 9 -8 11 13 11 203 67 211 62 5 -4 9 -2 9 4 0 6 12 14 28 17
15 4 33 11 40 17 6 5 12 7 12 3 0 -4 14 1 30 9 17 9 36 13 42 9 7 -5 8 -3 3 6
-6 10 -3 12 13 8 12 -3 22 -3 24 1 2 3 59 35 128 70 69 35 127 66 130 70 3 4
28 21 55 39 28 17 65 45 83 62 19 19 37 28 45 24 6 -4 8 -3 4 1 -4 5 3 14 15
21 13 7 23 21 23 31 0 11 7 17 18 16 13 -1 17 4 13 15 -3 10 5 4 19 -13 l25
-30 0 28 c0 15 5 27 11 27 11 0 6 -406 -6 -492 -4 -30 -3 -48 3 -48 6 0 8 17
5 43 -3 23 -3 39 1 36 4 -4 9 -31 12 -60 2 -30 9 -69 15 -86 6 -18 11 -53 12
-77 1 -24 6 -42 11 -38 6 3 6 -3 1 -14 -4 -10 -9 -62 -10 -114 -1 -52 0 -75 2
-50 2 24 10 51 16 59 9 11 9 15 0 18 -15 5 -17 33 -3 33 6 0 10 -7 10 -15 0
-18 17 -20 22 -3 3 9 6 9 12 0 4 -7 2 -12 -3 -12 -6 0 -11 -7 -11 -15 0 -8 -5
-15 -11 -15 -5 0 -7 -5 -4 -10 4 -6 3 -44 0 -85 -10 -104 -31 -102 -40 5 -5
58 -11 80 -21 80 -10 0 -14 -12 -14 -40 0 -22 -4 -40 -10 -40 -5 0 -10 -18
-10 -40 0 -36 3 -40 24 -40 23 0 24 -4 31 -80 5 -58 11 -80 21 -80 17 0 18 12
3 27 -8 8 -7 17 5 34 9 13 16 40 16 61 0 21 5 38 10 38 6 0 10 -18 10 -39 0
-22 5 -41 13 -44 8 -3 6 -10 -8 -21 l-20 -16 20 -16 c11 -8 19 -20 17 -26 -2
-6 14 -9 41 -7 43 4 44 3 41 -24 -3 -26 -2 -27 12 -12 19 19 32 12 16 -8 -12
-14 -7 -27 10 -27 5 0 6 5 3 10 -10 17 9 11 45 -13 42 -28 74 -41 65 -27 -4 6
9 17 27 25 18 9 57 29 86 45 50 28 54 29 77 14 13 -9 26 -23 29 -32 8 -31 18
-182 12 -182 -10 0 -139 70 -156 85 -17 14 -60 37 -60 32 0 -8 99 -74 155
-102 69 -35 72 -41 81 -167 l6 -88 139 0 139 0 0 40 c0 31 4 40 17 40 15 0 15
2 -2 14 -15 11 -19 30 -23 98 -2 47 0 87 4 90 5 3 46 0 90 -5 62 -8 89 -7 112
2 41 17 89 70 97 106 5 26 3 25 -17 -12 -12 -23 -28 -45 -36 -48 -8 -3 -33 14
-61 44 -25 27 -65 58 -88 70 -67 33 -64 24 4 -14 69 -40 103 -76 103 -111 0
-23 -2 -24 -84 -24 -113 0 -125 10 -129 105 -2 66 -1 69 23 75 24 6 24 6 4 12
-15 4 -23 16 -27 43 -8 49 -2 58 35 50 16 -4 63 -8 104 -9 66 -1 76 -4 105
-31 17 -17 40 -46 50 -65 19 -33 20 -25 2 32 -5 17 -3 20 13 15 10 -3 80 -24
154 -47 74 -23 178 -54 230 -70 69 -21 99 -35 109 -52 8 -13 41 -70 74 -128
54 -94 155 -226 165 -215 2 2 -23 37 -56 77 -52 64 -152 223 -152 242 0 4 16
-5 35 -19 55 -43 117 -57 216 -50 l85 7 56 -74 c77 -100 164 -194 173 -186 4
4 -16 31 -45 60 -63 64 -106 116 -133 158 l-20 31 39 -7 c21 -4 67 -15 102
-25 l62 -18 0 3500 0 3499 -95 0 -95 0 0 -267 c0 -148 -2 -308 -4 -358 -8
-158 -10 -1930 -2 -2225 13 -526 17 -822 21 -1282 1 -251 6 -479 10 -506 4
-28 1 -146 -5 -262 -10 -170 -10 -214 0 -220 10 -6 11 -34 7 -112 -23 -367
-23 -425 -6 -575 8 -63 8 -97 1 -105 -5 -8 -12 -121 -16 -268 -3 -159 -9 -256
-16 -258 -5 -2 -10 -11 -10 -20 0 -15 2 -15 10 -2 11 17 11 17 15 -28 2 -29 1
-31 -11 -15 -18 24 -18 0 0 -35 14 -28 11 -82 -5 -82 -12 0 -11 37 1 45 6 4 5
11 -3 20 -7 7 -21 64 -30 126 -31 205 -47 322 -67 474 -20 150 -27 203 -55
390 -20 138 -62 480 -80 660 -9 83 -22 213 -30 290 -16 145 -24 239 -50 555
-34 419 -48 636 -70 1080 -8 168 -22 388 -30 490 -39 482 -38 465 -100 1040
-20 179 -42 384 -50 455 -15 134 -19 223 -31 713 l-7 282 -109 0 -108 0 6 -42z
m-1306 -4983 c0 -2 -10 -9 -22 -15 -22 -11 -22 -10 -4 4 21 17 26 19 26 11z
m-2039 -132 l24 -28 -30 25 c-16 14 -32 26 -34 28 -2 1 0 2 6 2 5 0 20 -12 34
-27z m1824 -30 c-11 -7 -24 -13 -30 -13 -7 0 -25 -11 -41 -25 -15 -13 -30 -22
-32 -20 -3 2 -16 -5 -30 -15 -13 -11 -30 -20 -36 -20 -6 0 6 11 26 25 20 14
42 25 47 25 6 0 11 4 11 8 0 11 56 43 63 35 4 -3 9 2 13 11 3 9 11 13 17 9 6
-4 3 -11 -8 -20z m-1695 -43 c18 -12 2 -12 -25 0 -13 6 -15 9 -5 9 8 0 22 -4
30 -9z m124 -75 c26 -19 6 -19 -30 0 -23 12 -25 15 -9 15 11 -1 29 -7 39 -15z
m1381 -26 c11 -16 1 -19 -13 -3 -7 8 -8 14 -3 14 5 0 13 -5 16 -11z m-1320
-10 c11 -17 -1 -21 -15 -4 -8 9 -8 15 -2 15 6 0 14 -5 17 -11z m1235 -3 c0 -2
-7 -7 -16 -10 -8 -3 -12 -2 -9 4 6 10 25 14 25 6z m536 -136 c3 -35 -7 -53
-19 -32 -2 4 -2 2 -1 -5 2 -7 -2 -15 -7 -19 -8 -4 -10 12 -7 50 1 31 0 56 -4
56 -5 0 -8 10 -8 21 0 39 41 -26 46 -71z m-1641 61 c3 -5 0 -13 -6 -17 -7 -4
-9 -3 -5 4 3 5 0 13 -6 15 -9 4 -10 6 -1 6 6 1 14 -3 18 -8z m1004 6 c-2 -2
-17 -11 -34 -21 l-30 -17 24 20 c13 12 28 21 34 21 6 0 8 -1 6 -3z m-92 -57
c-14 -11 -29 -20 -34 -20 -10 1 39 39 51 40 5 0 -3 -9 -17 -20z m680 -12 c-3
-8 -6 -5 -6 6 -1 11 2 17 5 13 3 -3 4 -12 1 -19z m-1463 -30 c-3 -4 -10 -8
-16 -8 -6 0 -8 3 -5 7 4 3 1 13 -6 21 -11 13 -9 14 10 2 12 -8 19 -18 17 -22z
m741 13 c3 -6 -3 -15 -14 -20 -25 -14 -44 -14 -36 -1 3 6 16 10 28 10 18 0 19
2 7 10 -9 6 -10 10 -3 10 6 0 14 -4 18 -9z m-1469 -25 c16 -17 18 -26 4 -26
-5 0 -14 9 -20 20 -12 23 -5 26 16 6z m1355 -46 c-13 -11 -28 -20 -35 -20 -6
0 3 9 19 20 38 25 47 25 16 0z m-481 -25 c0 -12 -29 -3 -34 10 -4 13 -2 14 14
5 11 -6 20 -13 20 -15z m429 -8 c-2 -1 -12 -9 -22 -16 -15 -12 -17 -12 -11 3
3 9 13 16 22 16 8 0 13 -1 11 -3z m-334 -37 c3 -5 -1 -10 -9 -10 -8 0 -18 5
-21 10 -3 6 1 10 9 10 8 0 18 -4 21 -10z m1326 -673 c-10 -9 -11 -8 -5 6 3 10
9 15 12 12 3 -3 0 -11 -7 -18z m99 -67 c0 -5 -2 -10 -4 -10 -3 0 -8 5 -11 10
-3 6 -1 10 4 10 6 0 11 -4 11 -10z m-2876 -67 c7 -50 -2 -140 -14 -148 -10 -6
-17 35 -26 139 -7 76 -6 78 13 68 14 -8 22 -26 27 -59z m4803 -215 c-3 -8 -6
-5 -6 6 -1 11 2 17 5 13 3 -3 4 -12 1 -19z m-1902 -38 c3 -5 1 -10 -4 -10 -6
0 -11 5 -11 10 0 6 2 10 4 10 3 0 8 -4 11 -10z m-30 -10 c3 -5 1 -10 -4 -10
-6 0 -11 5 -11 10 0 6 2 10 4 10 3 0 8 -4 11 -10z"/>
<path d="M4901 1734 c0 -11 3 -14 6 -6 3 7 2 16 -1 19 -3 4 -6 -2 -5 -13z"/>
<path d="M5457 7051 c-4 -41 -5 -76 -3 -78 7 -7 18 100 14 128 -2 13 -7 -9
-11 -50z"/>
<path d="M3802 7003 c37 -2 100 -2 140 0 40 1 10 3 -67 3 -77 0 -110 -1 -73
-3z"/>
<path d="M3570 6990 c-20 -5 6 -6 60 -3 52 3 97 7 99 9 8 7 -123 2 -159 -6z"/>
<path d="M4048 6993 c12 -2 30 -2 40 0 9 3 -1 5 -23 4 -22 0 -30 -2 -17 -4z"/>
<path d="M4128 6983 c6 -2 18 -2 25 0 6 3 1 5 -13 5 -14 0 -19 -2 -12 -5z"/>
<path d="M3488 6973 c6 -2 18 -2 25 0 6 3 1 5 -13 5 -14 0 -19 -2 -12 -5z"/>
<path d="M5445 6940 c-4 -12 -5 -24 -2 -27 3 -2 8 5 12 17 4 12 5 24 2 27 -3
2 -8 -5 -12 -17z"/>
<path d="M3102 6879 c-57 -23 -102 -43 -100 -45 2 -1 49 14 105 35 139 53 131
49 113 50 -8 0 -61 -18 -118 -40z"/>
<path d="M4565 6890 c28 -10 57 -18 65 -18 8 0 -7 8 -35 18 -27 10 -57 18 -65
18 -8 0 8 -8 35 -18z"/>
<path d="M5413 6825 c-24 -85 -24 -119 0 -39 12 42 18 49 38 46 21 -2 21 -1 7
15 -9 10 -18 27 -20 38 -2 11 -13 -15 -25 -60z"/>
<path d="M2481 6844 c0 -11 3 -14 6 -6 3 7 2 16 -1 19 -3 4 -6 -2 -5 -13z"/>
<path d="M2321 6799 c-25 -29 -40 -54 -34 -58 6 -3 13 -37 17 -76 4 -38 9 -71
11 -73 7 -8 46 24 51 43 3 11 4 64 2 118 l-3 97 -44 -51z m29 -77 c0 -53 -5
-84 -15 -98 -14 -18 -14 -18 -15 6 -1 14 -4 47 -7 74 -4 47 10 96 29 96 4 0 8
-35 8 -78z"/>
<path d="M2491 6794 c0 -11 3 -14 6 -6 3 7 2 16 -1 19 -3 4 -6 -2 -5 -13z"/>
<path d="M4843 6779 c22 -11 41 -18 44 -15 4 3 -10 13 -30 21 -51 21 -59 18
-14 -6z"/>
<path d="M5498 6760 c2 -16 10 -30 18 -30 22 0 34 -35 35 -107 1 -37 3 -57 5
-43 3 14 9 42 15 63 10 37 8 41 -31 93 -22 30 -42 54 -44 54 -1 0 -1 -13 2
-30z"/>
<path d="M2501 6754 c0 -11 3 -14 6 -6 3 7 2 16 -1 19 -3 4 -6 -2 -5 -13z"/>
<path d="M2755 6668 l-16 -33 20 25 c20 24 26 40 16 40 -2 0 -12 -15 -20 -32z"/>
<path d="M2214 6668 l-19 -23 23 19 c21 18 27 26 19 26 -2 0 -12 -10 -23 -22z"/>
<path d="M2592 6620 c0 -14 2 -19 5 -12 2 6 2 18 0 25 -3 6 -5 1 -5 -13z"/>
<path d="M5600 6631 c0 -6 4 -13 10 -16 6 -3 7 1 4 9 -7 18 -14 21 -14 7z"/>
<path d="M5071 6615 c0 -5 11 -32 25 -60 13 -27 21 -39 18 -25 -7 29 -43 100
-43 85z"/>
<path d="M1537 6593 c-10 -18 -38 -187 -52 -323 -22 -206 -30 -714 -15 -1010
6 -135 14 -304 16 -377 2 -73 6 -138 9 -145 2 -7 7 -57 10 -111 4 -54 9 -96
12 -94 2 3 -3 114 -12 248 -11 155 -19 441 -22 784 -5 576 2 719 46 937 18 86
20 112 8 91z"/>
<path d="M2557 6584 c6 -16 19 -18 27 -5 3 5 -3 11 -13 14 -14 3 -18 1 -14 -9z"/>
<path d="M5630 6580 c6 -11 13 -20 16 -20 2 0 0 9 -6 20 -6 11 -13 20 -16 20
-2 0 0 -9 6 -20z"/>
<path d="M4107 6530 c-9 -54 -34 -362 -42 -515 -4 -69 -2 -104 3 -95 5 8 13
65 17 125 13 200 20 216 29 63 4 -75 6 -141 3 -145 -3 -5 0 -38 7 -73 8 -36
14 -109 15 -165 1 -55 6 -127 11 -160 5 -33 12 -76 14 -95 8 -67 -5 246 -20
485 -8 132 -19 326 -23 430 -5 133 -9 177 -14 145z"/>
<path d="M2667 6504 c-15 -31 -23 -53 -18 -50 10 7 54 97 49 102 -2 2 -16 -22
-31 -52z"/>
<path d="M5511 6533 c-1 -26 18 -73 31 -73 14 0 9 38 -6 43 -8 3 -16 16 -19
29 -4 22 -4 23 -6 1z"/>
<path d="M5661 6530 c14 -31 19 -36 19 -24 0 6 -7 19 -16 30 -14 18 -14 18 -3
-6z"/>
<path d="M5306 6513 c-6 -14 -5 -15 5 -6 7 7 10 15 7 18 -3 3 -9 -2 -12 -12z"/>
<path d="M5270 6470 c-9 -6 -10 -10 -3 -10 6 0 15 5 18 10 8 12 4 12 -15 0z"/>
<path d="M2419 6443 c14 -16 37 -41 49 -58 29 -37 18 -14 -21 43 -16 23 -35
42 -42 42 -8 0 -3 -11 14 -27z"/>
<path d="M3377 6453 c-16 -26 -78 -313 -112 -511 -26 -153 -33 -239 -10 -122
7 36 22 106 33 155 11 50 24 112 29 140 5 29 8 -130 8 -388 0 -240 -2 -437 -5
-437 -3 0 -29 10 -58 22 l-54 23 5 120 c5 133 -6 72 -18 -95 -3 -52 -8 -112
-11 -132 -2 -22 0 -38 6 -38 5 0 10 16 10 35 0 19 3 35 6 35 21 0 115 -33 121
-43 4 -6 10 -27 15 -47 4 -20 5 8 3 70 -15 358 -16 490 -6 700 10 219 32 457
46 501 6 19 1 26 -8 12z"/>
<path d="M5140 6444 c0 -15 83 -215 87 -210 4 4 -73 206 -82 215 -3 2 -5 0 -5
-5z"/>
<path d="M2240 6389 c-17 -13 -18 -17 -5 -10 33 17 51 31 40 31 -5 0 -21 -10
-35 -21z"/>
<path d="M1985 6354 c-9 -14 -15 -27 -13 -30 2 -2 12 10 22 26 21 37 15 40 -9
4z"/>
<path d="M2711 6364 c0 -11 3 -14 6 -6 3 7 2 16 -1 19 -3 4 -6 -2 -5 -13z"/>
<path d="M2179 6349 c-23 -19 -23 -20 -2 -10 12 6 25 16 28 21 10 16 -1 12
-26 -11z"/>
<path d="M2576 6330 c-9 -17 -24 -30 -32 -30 -8 0 -12 -4 -9 -10 3 -5 10 -10
15 -10 9 0 53 70 47 76 -2 2 -11 -10 -21 -26z"/>
<path d="M4476 6290 c1 -36 3 -182 5 -325 3 -243 14 -311 19 -110 2 105 14 84
25 -45 4 -44 10 -79 12 -76 7 6 -12 215 -33 369 -8 59 -14 131 -15 160 0 29
-4 61 -8 72 -5 12 -7 -7 -5 -45z"/>
<path d="M2702 6320 c0 -14 2 -19 5 -12 2 6 2 18 0 25 -3 6 -5 1 -5 -13z"/>
<path d="M5769 6308 c16 -41 41 -83 41 -70 0 14 -38 92 -45 92 -2 0 -1 -10 4
-22z"/>
<path d="M5520 6294 c0 -5 28 -36 62 -69 l62 -60 -41 50 c-47 58 -83 92 -83
79z"/>
<path d="M2651 6153 c-74 -238 -241 -635 -400 -950 -28 -57 -51 -106 -51 -110
0 -11 61 84 85 131 11 21 34 47 50 57 26 16 23 25 -7 20 -5 0 -8 4 -8 9 0 6 7
10 16 10 8 0 12 4 9 10 -3 5 7 35 24 65 16 31 31 53 33 48 3 -4 3 -3 2 4 -4
16 18 73 28 73 4 0 8 7 8 15 0 8 4 23 9 33 39 79 64 138 87 202 14 41 30 80
34 85 4 6 13 27 20 48 10 31 14 36 26 26 16 -13 19 2 4 17 -7 7 -7 19 -1 35 5
13 11 20 12 14 1 -5 5 8 10 30 6 31 7 24 4 -29 -2 -38 -9 -74 -15 -80 -12 -12
-13 -29 -1 -22 16 10 18 -27 10 -249 -4 -121 -8 -236 -8 -256 l-1 -35 -121
-21 c-134 -23 -180 -44 -72 -32 38 5 96 8 129 8 l62 1 6 -62 c3 -35 8 -151 12
-259 l7 -196 -149 -6 c-102 -4 -174 -12 -227 -26 -88 -23 -203 -80 -243 -120
-25 -24 -26 -31 -22 -96 8 -118 80 -266 176 -362 43 -43 111 -90 142 -98 3 -1
23 -10 45 -20 22 -10 56 -21 75 -24 31 -5 35 -10 38 -39 4 -38 11 -39 43 -11
57 50 97 50 143 2 l34 -37 41 37 c46 42 77 46 113 17 l25 -19 23 24 c12 13 38
31 56 40 47 22 42 33 -11 27 -25 -2 -45 -2 -45 1 0 4 13 27 30 53 16 26 36 68
44 93 21 65 40 221 34 276 -8 66 9 61 125 -38 32 -27 60 -47 62 -45 9 8 -57
126 -84 152 -17 15 -43 26 -74 30 -26 4 -71 11 -99 16 -63 12 -68 12 -68 0 0
-5 5 -10 11 -10 13 0 40 -26 43 -43 2 -6 7 -23 13 -37 6 -14 13 -55 17 -91 11
-113 -38 -317 -86 -356 -30 -25 -248 -36 -319 -17 -20 6 -58 77 -94 177 -21
59 -32 77 -46 77 -12 0 -19 -7 -19 -20 0 -22 60 -147 92 -193 11 -16 18 -30
16 -33 -3 -2 -29 3 -59 12 -102 30 -184 147 -263 373 -24 69 -36 121 -36 157
0 53 0 53 38 63 20 5 65 13 100 17 l62 7 0 -100 c0 -140 6 -163 40 -163 l27 0
7 122 c4 68 8 124 9 124 4 4 57 6 130 5 66 -1 77 -4 78 -18 0 -11 3 -13 6 -5
2 6 11 12 18 12 10 0 13 11 10 43 -17 158 -25 380 -25 659 0 332 8 498 36 746
8 78 14 147 12 153 -2 6 -23 -52 -47 -128z"/>
<path d="M1915 6239 c-4 -6 -5 -12 -2 -15 2 -3 7 2 10 11 7 17 1 20 -8 4z"/>
<path d="M5112 5915 c0 -181 -6 -406 -11 -500 -6 -93 -12 -206 -15 -250 -3
-44 -2 -66 0 -50 3 17 9 33 12 37 9 9 238 -57 269 -78 12 -8 39 -48 59 -89 65
-134 52 -80 -32 130 -56 143 -174 511 -227 715 -33 123 -39 161 -47 300 -5 82
-7 19 -8 -215z m73 -234 c2 -14 11 -45 19 -70 40 -122 77 -237 80 -251 3 -8 9
-28 15 -43 6 -16 8 -33 5 -39 -4 -6 -2 -8 4 -4 6 4 13 -7 17 -26 4 -18 12 -38
17 -45 5 -7 7 -17 3 -23 -3 -5 4 -24 15 -41 27 -37 19 -47 -23 -30 -18 7 -77
30 -132 51 l-100 39 2 73 c1 40 8 161 14 268 6 107 11 222 10 255 l0 60 25
-75 c13 -41 26 -86 29 -99z"/>
<path d="M1989 6203 c-13 -16 -12 -17 4 -4 9 7 17 15 17 17 0 8 -8 3 -21 -13z"/>
<path d="M2826 6138 c-39 -179 -88 -581 -85 -696 1 -30 5 -16 10 43 26 286 31
319 45 294 13 -23 13 -21 14 26 0 28 9 129 20 225 10 96 17 176 16 178 -2 2
-11 -30 -20 -70z"/>
<path d="M5826 6187 c3 -10 9 -15 12 -12 3 3 0 11 -7 18 -10 9 -11 8 -5 -6z"/>
<path d="M5246 6170 c6 -25 21 -47 26 -39 2 2 14 17 28 34 18 22 20 25 4 12
-26 -22 -40 -22 -54 1 -9 14 -10 13 -4 -8z"/>
<path d="M1876 6165 c-9 -26 -7 -32 5 -12 6 10 9 21 6 23 -2 3 -7 -2 -11 -11z"/>
<path d="M5696 6090 c31 -38 58 -70 61 -70 5 0 -44 66 -74 100 -13 14 -23 28
-23 32 0 5 -5 8 -10 8 -6 0 15 -31 46 -70z"/>
<path d="M5841 6155 c0 -5 13 -46 30 -90 16 -44 27 -67 24 -52 -7 33 -53 156
-54 142z"/>
<path d="M1831 6078 c-5 -13 -7 -25 -5 -27 7 -7 34 21 34 35 0 22 -20 16 -29
-8z"/>
<path d="M4932 5683 c1 -164 -2 -344 -7 -400 l-7 -102 22 6 23 6 -5 -192 c-6
-197 -11 -221 -49 -221 -27 0 -30 12 -18 74 6 32 9 62 7 67 -3 10 -69 -344
-68 -368 0 -7 5 -13 12 -13 6 0 8 3 5 7 -8 7 11 33 25 33 5 0 6 -5 2 -11 -3
-6 5 -3 20 6 26 17 26 17 26 -8 0 -14 -4 -28 -9 -31 -4 -3 -6 -17 -4 -30 4
-21 8 -23 18 -13 32 32 57 595 44 979 -9 247 -25 497 -33 505 -2 3 -4 -130 -4
-294z m28 -344 c0 -76 -3 -100 -12 -96 -7 2 -13 11 -12 20 0 10 1 53 2 97 3
119 22 100 22 -21z m-15 -604 c0 -26 -4 -30 -29 -33 -37 -4 -49 8 -40 42 5 23
11 27 38 24 27 -3 31 -7 31 -33z"/>
<path d="M5900 5974 c0 -5 9 -42 20 -82 29 -104 26 -115 -16 -67 l-36 40 31
-46 c30 -46 61 -69 61 -46 0 16 -49 200 -55 206 -3 2 -5 0 -5 -5z"/>
<path d="M4091 5954 c0 -11 3 -14 6 -6 3 7 2 16 -1 19 -3 4 -6 -2 -5 -13z"/>
<path d="M5810 5944 c1 -10 59 -82 60 -73 0 3 -13 23 -30 44 -16 21 -30 34
-30 29z"/>
<path d="M3522 5885 c0 -16 2 -22 5 -12 2 9 2 23 0 30 -3 6 -5 -1 -5 -18z"/>
<path d="M2600 5868 c0 -13 -3 -34 -6 -48 l-5 -25 15 25 c18 29 20 56 6 65 -6
3 -10 -4 -10 -17z"/>
<path d="M3501 5758 c-22 -187 -34 -526 -24 -683 l10 -150 3 180 c3 176 3 178
11 85 5 -52 13 -122 18 -155 7 -48 8 -39 3 40 -4 55 -7 252 -7 438 0 185 -1
337 -1 337 -1 0 -6 -42 -13 -92z"/>
<path d="M4051 5824 c0 -11 3 -14 6 -6 3 7 2 16 -1 19 -3 4 -6 -2 -5 -13z"/>
<path d="M2565 5780 c-3 -5 -1 -10 4 -10 6 0 11 5 11 10 0 6 -2 10 -4 10 -3 0
-8 -4 -11 -10z"/>
<path d="M2520 5695 c0 -8 4 -15 10 -15 5 0 7 7 4 15 -4 8 -8 15 -10 15 -2 0
-4 -7 -4 -15z"/>
<path d="M1922 5473 c-7 -126 -11 -277 -10 -338 1 -62 3 -82 5 -45 10 263 25
532 29 568 4 23 2 42 -3 42 -5 0 -15 -102 -21 -227z"/>
<path d="M4542 5680 c0 -14 2 -19 5 -12 2 6 2 18 0 25 -3 6 -5 1 -5 -13z"/>
<path d="M2787 5593 c-3 -43 -2 -98 3 -123 6 -34 8 -16 9 78 0 67 -1 122 -3
122 -1 0 -6 -35 -9 -77z"/>
<path d="M3221 5604 c0 -11 3 -14 6 -6 3 7 2 16 -1 19 -3 4 -6 -2 -5 -13z"/>
<path d="M5597 5458 c-10 -106 -21 -474 -15 -468 7 6 31 530 25 536 -2 3 -7
-28 -10 -68z"/>
<path d="M4023 5440 c0 -25 2 -35 4 -22 2 12 2 32 0 45 -2 12 -4 2 -4 -23z"/>
<path d="M4562 5420 c0 -14 2 -19 5 -12 2 6 2 18 0 25 -3 6 -5 1 -5 -13z"/>
<path d="M2791 5384 c-1 -16 -41 -25 -41 -11 0 7 -6 3 -12 -7 -17 -30 3 -517
28 -683 4 -25 10 -33 25 -33 11 0 17 -4 14 -10 -4 -6 7 -10 24 -10 31 0 31 0
30 53 -1 52 -16 128 -18 95 -1 -12 -9 -18 -23 -18 -54 1 -56 13 -65 338 -5
208 -5 212 15 212 18 0 21 -9 27 -77 10 -121 12 -126 13 -23 0 79 -12 213 -17
174z"/>
<path d="M4173 5005 c0 -203 3 -334 7 -300 10 76 10 360 1 530 -6 94 -8 32 -8
-230z"/>
<path d="M4465 5262 c-3 -8 -4 -39 -4 -70 1 -31 4 -47 6 -34 5 25 43 45 77 40
15 -2 23 -13 27 -38 5 -25 7 -12 8 42 l1 76 -55 -1 c-35 -1 -56 -7 -60 -15z"/>
<path d="M3942 5230 c0 -14 2 -19 5 -12 2 6 2 18 0 25 -3 6 -5 1 -5 -13z"/>
<path d="M3933 5155 c0 -22 2 -30 4 -17 2 12 2 30 0 40 -3 9 -5 -1 -4 -23z"/>
<path d="M3183 5120 c0 -36 2 -50 4 -32 2 17 2 47 0 65 -2 17 -4 3 -4 -33z"/>
<path d="M4001 5154 c0 -11 3 -14 6 -6 3 7 2 16 -1 19 -3 4 -6 -2 -5 -13z"/>
<path d="M4912 5100 c0 -19 2 -27 5 -17 2 9 2 25 0 35 -3 9 -5 1 -5 -18z"/>
<path d="M3352 5090 c0 -19 2 -27 5 -17 2 9 2 25 0 35 -3 9 -5 1 -5 -18z"/>
<path d="M4326 4998 c-7 -109 -31 -355 -41 -428 -4 -26 -3 -30 4 -15 21 48 66
555 49 555 -3 0 -9 -51 -12 -112z"/>
<path d="M4446 5045 c-6 -58 -48 -344 -71 -485 -7 -46 9 -13 25 53 9 32 18 47
29 47 14 0 14 -2 1 -10 -9 -6 -10 -10 -3 -10 7 0 38 15 70 34 32 19 62 31 66
27 4 -4 5 -27 1 -50 -5 -31 -14 -46 -35 -58 -38 -23 -37 -38 1 -18 17 9 30 12
30 8 0 -4 5 -2 10 3 7 7 13 102 16 245 4 166 2 230 -5 219 -6 -8 -10 -51 -10
-95 1 -44 -2 -106 -6 -137 -7 -54 -9 -58 -34 -58 -25 1 -25 1 -7 15 23 17 4
20 -25 5 -13 -7 -19 -7 -19 0 0 5 6 10 13 10 8 0 7 3 -3 9 -8 6 -17 8 -21 6
-3 -3 -11 13 -17 34 -9 28 -9 66 -1 145 6 58 9 112 6 119 -2 6 -7 -19 -11 -58z
m24 -250 c4 3 6 -4 3 -15 -3 -11 -10 -17 -16 -13 -6 4 -8 -3 -3 -20 3 -14 2
-28 -3 -31 -12 -8 -21 46 -10 60 5 6 7 20 3 30 -5 18 -5 18 6 1 6 -9 15 -15
20 -12z m28 -52 c-10 -2 -18 -11 -18 -19 0 -8 5 -12 10 -9 16 10 12 -11 -5
-25 -13 -11 -14 -10 -8 6 6 17 5 17 -10 6 -9 -8 -22 -12 -29 -9 -8 4 -7 6 4 6
10 1 20 12 24 26 4 18 13 25 28 24 16 -1 17 -2 4 -6z m41 -14 c-11 -11 -23
-18 -26 -15 -9 8 17 36 33 36 10 0 7 -7 -7 -21z"/>
<path d="M3993 5050 c0 -30 2 -43 4 -27 2 15 2 39 0 55 -2 15 -4 2 -4 -28z"/>
<path d="M3916 4947 c-5 -76 -6 -140 -3 -143 6 -7 20 236 15 262 -2 10 -8 -43
-12 -119z"/>
<path d="M2130 4968 c-29 -57 -56 -107 -60 -113 -9 -13 -53 -92 -97 -175 -34
-63 -51 -89 -55 -79 -1 2 -5 78 -8 169 -5 97 -6 -9 -3 -260 4 -398 28 -1004
31 -780 1 52 -3 185 -8 295 -5 110 -10 274 -12 365 l-3 165 56 95 c67 113 221
411 216 416 -2 3 -28 -42 -57 -98z"/>
<path d="M2812 5045 c0 -16 2 -22 5 -12 2 9 2 23 0 30 -3 6 -5 -1 -5 -18z"/>
<path d="M5072 5020 c0 -14 2 -19 5 -12 2 6 2 18 0 25 -3 6 -5 1 -5 -13z"/>
<path d="M3362 4990 c0 -14 2 -19 5 -12 2 6 2 18 0 25 -3 6 -5 1 -5 -13z"/>
<path d="M3972 4838 c-13 -159 -15 -214 -8 -207 6 6 29 349 24 355 -3 2 -10
-65 -16 -148z"/>
<path d="M2823 4935 c0 -27 2 -38 4 -22 2 15 2 37 0 50 -2 12 -4 0 -4 -28z"/>
<path d="M5573 4905 c0 -44 2 -61 4 -37 2 23 2 59 0 80 -2 20 -4 1 -4 -43z"/>
<path d="M3376 4869 c7 -50 16 -94 19 -97 4 -4 5 11 1 33 -3 22 -8 66 -12 98
-3 31 -9 57 -13 57 -4 0 -2 -41 5 -91z"/>
<path d="M3532 4935 c0 -16 5 -64 12 -105 8 -41 14 -64 14 -50 0 14 -5 61 -13
105 -7 44 -13 67 -13 50z"/>
<path d="M3171 4753 c1 -87 4 -144 6 -128 7 54 11 60 32 41 10 -9 25 -14 35
-10 20 8 20 18 -1 35 -15 12 -16 12 -10 -5 6 -16 5 -17 -8 -6 -8 7 -12 16 -9
22 12 19 9 128 -3 133 -7 2 -13 0 -13 -4 0 -5 6 -12 13 -14 7 -3 5 -6 -5 -6
-15 -1 -18 7 -18 43 0 25 -4 48 -10 51 -7 4 -9 -49 -9 -152z"/>
<path d="M3490 4822 l5 -67 3 59 c2 32 -1 63 -5 67 -4 4 -6 -22 -3 -59z"/>
<path d="M2553 4873 c15 -2 37 -2 50 0 12 2 0 4 -28 4 -27 0 -38 -2 -22 -4z"/>
<path d="M2820 4866 c0 -8 -4 -16 -8 -18 -4 -1 0 -11 10 -20 17 -17 18 -16 18
17 0 19 -4 35 -10 35 -5 0 -10 -6 -10 -14z"/>
<path d="M5052 4850 c0 -14 2 -19 5 -12 2 6 2 18 0 25 -3 6 -5 1 -5 -13z"/>
<path d="M2358 4853 c6 -2 18 -2 25 0 6 3 1 5 -13 5 -14 0 -19 -2 -12 -5z"/>
<path d="M5490 4859 c0 -4 9 -26 20 -50 11 -24 19 -37 19 -29 0 15 -38 91 -39
79z"/>
<path d="M2318 4843 c7 -3 16 -2 19 1 4 3 -2 6 -13 5 -11 0 -14 -3 -6 -6z"/>
<path d="M4506 4841 c-4 -7 -5 -15 -2 -18 9 -9 19 4 14 18 -4 11 -6 11 -12 0z"/>
<path d="M3811 4730 l2 -95 7 85 c5 49 4 89 -1 95 -5 5 -8 -29 -8 -85z"/>
<path d="M5561 4771 c-1 -29 -3 -32 -17 -20 -15 12 -15 10 0 -25 9 -21 17 -50
17 -65 1 -14 5 -2 10 27 5 32 5 67 0 85 l-9 32 -1 -34z"/>
<path d="M3896 4697 c-4 -54 -6 -101 -3 -103 7 -8 20 135 15 171 -2 17 -7 -14
-12 -68z"/>
<path d="M5037 4765 c-8 -40 -25 -140 -31 -192 -7 -52 10 -67 20 -18 l6 36 62
-2 c86 -3 94 -7 107 -46 12 -36 4 -203 -11 -233 -5 -8 -18 -44 -31 -80 -26
-77 -90 -203 -122 -244 -23 -28 -25 -29 -118 -27 -182 2 -246 24 -251 85 0 11
-2 26 -3 31 -2 6 -3 38 -4 73 -1 60 -2 62 -27 62 -27 0 -27 0 -22 -63 3 -35
15 -81 27 -105 24 -48 14 -55 -40 -26 -46 24 -46 9 0 -23 24 -16 45 -41 51
-60 13 -38 10 -37 56 -18 46 19 90 9 117 -26 19 -27 47 -39 47 -21 0 16 60 42
97 42 29 0 46 -7 63 -25 13 -14 26 -25 29 -25 3 0 20 13 37 29 36 34 77 56
121 65 104 23 230 129 280 235 15 34 31 61 36 61 4 0 7 -30 7 -67 0 -111 7
-67 14 87 3 80 9 192 12 250 4 58 4 103 1 99 -4 -3 -7 -19 -9 -37 -2 -35 -16
-40 -51 -18 -72 46 -303 113 -437 128 -34 4 -39 41 -8 62 17 12 19 16 6 16 -9
0 -18 6 -21 13 -2 6 -7 -1 -10 -18z m347 -210 c32 -8 63 -18 69 -24 30 -30
-60 -320 -135 -432 -49 -74 -123 -126 -191 -135 -26 -4 -47 -4 -47 0 0 4 18
30 41 58 49 62 91 143 113 218 21 71 46 222 46 283 0 55 4 56 104 32z"/>
<path d="M3407 4700 c3 -30 9 -64 14 -75 10 -23 2 37 -12 95 -6 26 -7 22 -2
-20z"/>
<path d="M3562 4730 c0 -14 4 -38 8 -55 7 -27 8 -27 8 -5 0 14 -4 39 -8 55 -7
27 -8 27 -8 5z"/>
<path d="M3503 4690 c0 -30 2 -43 4 -27 2 15 2 39 0 55 -2 15 -4 2 -4 -28z"/>
<path d="M3256 4698 c19 -20 44 -24 44 -7 0 6 -7 9 -15 5 -8 -3 -15 -1 -15 4
0 5 10 11 23 13 12 2 5 4 -16 4 -35 0 -36 -1 -21 -19z"/>
<path d="M5290 4710 c8 -5 22 -10 30 -10 13 0 13 1 0 10 -8 5 -22 10 -30 10
-13 0 -13 -1 0 -10z"/>
<path d="M1322 4668 c-24 -30 -43 -99 -59 -208 -15 -108 -15 -126 0 -246 10
-74 29 -167 46 -219 36 -108 61 -169 67 -163 2 3 -8 33 -22 68 -52 128 -75
244 -81 405 -5 162 7 255 45 334 21 42 22 50 4 29z"/>
<path d="M3581 4624 c0 -11 3 -14 6 -6 3 7 2 16 -1 19 -3 4 -6 -2 -5 -13z"/>
<path d="M4162 4595 c0 -16 2 -22 5 -12 2 9 2 23 0 30 -3 6 -5 -1 -5 -18z"/>
<path d="M1364 4595 c36 -19 47 -19 22 0 -11 8 -27 15 -35 15 -9 0 -3 -7 13
-15z"/>
<path d="M2600 4593 c-44 -16 -90 -106 -90 -177 0 -57 23 -129 52 -162 33 -37
43 -37 43 1 1 14 -1 22 -4 19 -12 -11 -31 64 -31 121 0 64 17 118 51 167 11
14 19 29 19 32 0 7 -19 7 -40 -1z"/>
<path d="M2727 4593 c-4 -3 2 -12 13 -20 11 -8 17 -20 14 -31 -5 -13 -4 -14 4
-4 7 11 14 8 31 -14 11 -14 22 -36 22 -48 1 -11 3 -28 4 -36 1 -8 3 -34 4 -57
1 -29 8 -50 22 -64 32 -32 41 -12 35 77 -3 44 -5 89 -6 102 0 13 -4 21 -8 18
-4 -2 -17 9 -27 25 -27 39 -91 70 -108 52z"/>
<path d="M2886 4585 c4 -8 11 -15 16 -15 6 0 5 6 -2 15 -7 8 -14 15 -16 15 -2
0 -1 -7 2 -15z"/>
<path d="M3431 4584 c0 -11 3 -14 6 -6 3 7 2 16 -1 19 -3 4 -6 -2 -5 -13z"/>
<path d="M1410 4577 c0 -3 16 -23 36 -44 20 -21 31 -29 26 -18 -11 21 -62 73
-62 62z"/>
<path d="M3882 4560 c0 -14 2 -19 5 -12 2 6 2 18 0 25 -3 6 -5 1 -5 -13z"/>
<path d="M4521 4515 c-56 -69 -85 -114 -77 -122 3 -3 38 17 78 44 40 27 79 53
86 57 10 6 11 -10 6 -83 l-7 -91 31 0 c29 0 32 3 38 40 4 23 11 37 17 33 6 -4
7 -1 2 6 -9 15 14 101 27 101 6 0 8 6 5 14 -3 8 -1 17 6 20 26 10 -20 26 -80
26 -34 0 -67 2 -75 5 -7 2 -33 -20 -57 -50z"/>
<path d="M3952 4540 c0 -14 2 -19 5 -12 2 6 2 18 0 25 -3 6 -5 1 -5 -13z"/>
<path d="M4820 4513 c-8 -4 -23 -15 -32 -26 -10 -11 -18 -15 -18 -9 0 7 -5 12
-11 12 -5 0 -7 -5 -3 -11 3 -6 -6 -35 -21 -64 -29 -58 -31 -118 -4 -123 10 -2
22 15 39 55 12 32 29 65 36 74 8 8 14 19 14 22 0 11 33 46 40 42 3 -2 6 5 6
16 0 19 -16 23 -46 12z"/>
<path d="M4970 4504 c0 -4 9 -15 21 -25 12 -10 18 -23 13 -30 -4 -7 -3 -9 4
-5 6 4 14 -12 20 -40 10 -47 -3 -127 -28 -174 -15 -27 -12 -50 6 -57 17 -6 42
23 61 72 17 44 16 176 -2 199 -17 23 -20 40 -5 31 6 -3 10 -4 10 -1 0 8 -69
36 -86 36 -8 0 -14 -3 -14 -6z"/>
<path d="M1505 4482 c-12 -8 -15 -53 -3 -46 4 3 8 -40 8 -96 0 -56 -3 -99 -7
-97 -5 3 -9 -6 -9 -19 -2 -19 1 -22 11 -14 9 8 15 8 20 0 3 -5 -1 -13 -9 -16
-8 -3 -18 -14 -21 -25 -4 -10 -13 -19 -20 -19 -8 0 -12 -6 -9 -14 3 -8 1 -17
-5 -21 -6 -3 -11 -20 -11 -36 0 -34 55 -172 100 -252 24 -42 32 -74 43 -172 8
-66 15 -104 16 -85 1 33 -25 310 -49 530 -5 52 -15 158 -21 235 -12 141 -16
160 -34 147z m21 -348 c-4 -9 -9 -15 -11 -12 -3 3 -3 13 1 22 4 9 9 15 11 12
3 -3 3 -13 -1 -22z m17 -89 c17 -165 18 -190 7 -166 -6 14 -8 31 -6 38 3 7 0
12 -7 10 -8 -1 -11 11 -9 38 2 29 0 36 -7 25 -11 -17 -13 -16 -28 27 -12 35
-7 77 8 67 5 -3 6 -16 3 -30 -4 -17 -2 -24 9 -24 8 0 14 9 14 23 1 78 8 75 16
-8z"/>
<path d="M2656 4458 c-37 -52 -9 -138 44 -138 34 0 60 23 61 53 1 12 3 36 5
52 3 24 -2 32 -23 43 -40 18 -70 15 -87 -10z"/>
<path d="M4857 4402 c-29 -18 -37 -38 -37 -99 0 -49 20 -73 60 -73 58 0 93 98
56 155 -20 30 -48 36 -79 17z"/>
<path d="M2810 4241 c0 -19 22 -23 38 -7 15 15 14 16 -11 16 -15 0 -27 -4 -27
-9z"/>
<path d="M4715 4219 c-9 -14 3 -77 17 -85 18 -11 26 16 15 57 -9 39 -20 48
-32 28z"/>
<path d="M4950 4120 c0 -5 7 -10 16 -10 8 0 12 5 9 10 -3 6 -10 10 -16 10 -5
0 -9 -4 -9 -10z"/>
<path d="M5533 3990 c0 -41 2 -58 4 -37 2 20 2 54 0 75 -2 20 -4 3 -4 -38z"/>
<path d="M5523 3810 c0 -41 2 -58 4 -37 2 20 2 54 0 75 -2 20 -4 3 -4 -38z"/>
<path d="M1380 3810 c0 -5 5 -10 11 -10 5 0 7 5 4 10 -3 6 -8 10 -11 10 -2 0
-4 -4 -4 -10z"/>
<path d="M1452 3666 c12 -25 24 -44 26 -42 5 6 -28 75 -39 82 -5 3 1 -15 13
-40z"/>
<path d="M5513 3620 c0 -47 2 -66 4 -42 2 23 2 61 0 85 -2 23 -4 4 -4 -43z"/>
<path d="M3674 3635 c3 -16 9 -85 12 -152 7 -130 24 -170 24 -55 -1 98 -16
212 -30 225 -10 9 -11 5 -6 -18z"/>
<path d="M1490 3604 c0 -6 27 -53 59 -105 33 -53 62 -106 65 -120 3 -13 20
-161 36 -329 17 -168 32 -316 35 -330 8 -41 47 -481 47 -530 0 -39 -6 -113
-28 -365 -3 -33 -11 -116 -19 -185 -8 -69 -17 -152 -20 -185 -12 -127 -60
-488 -76 -570 -5 -27 -16 -99 -23 -159 -9 -66 -20 -112 -28 -117 -9 -6 -3 -9
17 -9 36 0 146 39 195 69 37 22 83 27 123 12 21 -8 25 -18 31 -71 4 -34 5 -64
3 -67 -3 -2 -23 1 -45 6 -26 7 -53 8 -78 2 -39 -9 -39 -9 18 -10 31 -1 68 -5
82 -11 27 -10 42 -46 31 -79 -10 -33 -94 -87 -210 -135 -61 -25 -102 -45 -92
-46 31 0 186 68 246 109 68 46 71 44 71 -49 0 -54 -2 -59 -32 -80 -18 -12 -24
-19 -13 -15 55 19 53 21 60 -52 4 -37 10 -95 15 -128 12 -92 12 -4 -1 125 -5
58 -14 157 -19 220 -10 126 -32 350 -55 560 -8 74 -24 221 -35 325 -12 105
-36 318 -54 475 -41 344 -52 444 -76 710 -30 317 -49 510 -92 930 -10 100 -14
116 -18 80 l-5 -45 -46 70 c-25 39 -51 79 -57 90 -6 11 -12 15 -12 9z m400
-2899 c0 -8 -4 -15 -10 -15 -5 0 -10 7 -10 15 0 8 5 15 10 15 6 0 10 -7 10
-15z"/>
<path d="M1943 3475 c0 -44 2 -61 4 -37 2 23 2 59 0 80 -2 20 -4 1 -4 -43z"/>
<path d="M5503 3430 c0 -41 2 -58 4 -37 2 20 2 54 0 75 -2 20 -4 3 -4 -38z"/>
<path d="M5493 3190 c0 -30 2 -43 4 -27 2 15 2 39 0 55 -2 15 -4 2 -4 -28z"/>
<path d="M3181 2683 c15 -18 98 -57 105 -50 5 5 -100 67 -112 67 -4 0 0 -7 7
-17z"/>
<path d="M4310 2665 c-7 -9 -50 -34 -94 -56 -58 -29 -71 -38 -46 -33 58 11
170 74 170 95 0 14 -16 11 -30 -6z"/>
<path d="M3445 2570 c27 -12 43 -12 25 0 -8 5 -22 9 -30 9 -10 0 -8 -3 5 -9z"/>
<path d="M4015 2550 c-27 -7 -27 -8 -5 -8 14 0 39 4 55 8 27 7 27 8 5 8 -14 0
-38 -4 -55 -8z"/>
<path d="M3903 2533 c15 -2 37 -2 50 0 12 2 0 4 -28 4 -27 0 -38 -2 -22 -4z"/>
<path d="M3738 2523 c17 -2 47 -2 65 0 17 2 3 4 -33 4 -36 0 -50 -2 -32 -4z"/>
<path d="M2595 1730 c3 -5 11 -10 16 -10 6 0 7 5 4 10 -3 6 -11 10 -16 10 -6
0 -7 -4 -4 -10z"/>
<path d="M2565 1700 c-3 -5 1 -10 10 -10 9 0 13 5 10 10 -3 6 -8 10 -10 10 -2
0 -7 -4 -10 -10z"/>
<path d="M2665 1610 c-3 -6 1 -7 9 -4 18 7 21 14 7 14 -6 0 -13 -4 -16 -10z"/>
<path d="M4911 1584 c0 -11 3 -14 6 -6 3 7 2 16 -1 19 -3 4 -6 -2 -5 -13z"/>
<path d="M2750 1581 c0 -9 30 -24 36 -18 2 1 -6 8 -16 15 -11 7 -20 8 -20 3z"/>
<path d="M3150 1326 c0 -2 9 -6 20 -9 11 -3 18 -1 14 4 -5 9 -34 13 -34 5z"/>
<path d="M4435 1320 c-3 -5 -2 -10 4 -10 5 0 13 5 16 10 3 6 2 10 -4 10 -5 0
-13 -4 -16 -10z"/>
<path d="M4911 1294 c0 -11 3 -14 6 -6 3 7 2 16 -1 19 -3 4 -6 -2 -5 -13z"/>
<path d="M4190 1230 c-8 -5 -10 -10 -5 -10 6 0 17 5 25 10 8 5 11 10 5 10 -5
0 -17 -5 -25 -10z"/>
<path d="M4120 1209 c0 -5 5 -7 10 -4 6 3 10 8 10 11 0 2 -4 4 -10 4 -5 0 -10
-5 -10 -11z"/>
<path d="M4892 1140 c0 -14 2 -19 5 -12 2 6 2 18 0 25 -3 6 -5 1 -5 -13z"/>
<path d="M3527 1100 c3 -11 9 -17 15 -14 5 3 4 12 -3 20 -16 19 -18 18 -12 -6z"/>
<path d="M3871 1083 c-6 -12 -5 -22 3 -29 10 -9 13 -5 13 17 0 34 -3 36 -16
12z"/>
<path d="M4916 1068 c3 -12 13 -35 20 -52 11 -25 13 -27 14 -10 0 30 -20 84
-32 84 -5 0 -6 -10 -2 -22z"/>
<path d="M3817 975 c-4 -8 -3 -16 1 -19 4 -3 9 4 9 15 2 23 -3 25 -10 4z"/>
<path d="M3786 916 c-16 -26 -12 -60 8 -53 6 2 10 16 8 31 -2 18 1 25 7 21 6
-3 11 1 11 9 0 23 -15 19 -34 -8z"/>
<path d="M1265 560 c-26 -7 -27 -8 -6 -9 16 -1 21 -6 18 -15 -4 -11 5 -9 31 6
20 12 39 23 41 25 8 6 -54 1 -84 -7z"/>
<path d="M1680 530 c-20 -6 -21 -8 -5 -8 11 0 31 4 45 8 20 6 21 8 5 8 -11 0
-31 -4 -45 -8z"/>
<path d="M1600 504 l-25 -15 25 7 c14 3 32 10 40 15 13 7 13 8 0 8 -8 0 -26
-6 -40 -15z"/>
<path d="M864 479 c-20 -23 -64 -47 -104 -60 -20 -6 -21 -7 -5 -8 11 0 40 8
64 19 51 23 56 24 45 7 -5 -7 -1 -4 9 6 9 11 17 28 17 38 0 24 -3 24 -26 -2z"/>
<path d="M1543 483 c-12 -2 -27 -11 -33 -18 -11 -13 -8 -13 19 -4 17 6 34 15
37 20 3 5 4 8 2 8 -2 -1 -13 -4 -25 -6z"/>
<path d="M3620 428 c-17 -29 -44 -82 -61 -118 -57 -119 -121 -245 -141 -277
-19 -31 -12 -47 10 -20 14 17 122 227 117 227 -5 0 77 158 102 198 8 13 17 22
19 19 10 -10 44 -113 44 -132 0 -12 4 -25 9 -31 5 -5 21 -44 35 -87 14 -42 30
-85 35 -95 4 -9 18 -39 30 -66 12 -26 24 -46 27 -43 3 3 -15 59 -41 124 -26
65 -60 159 -75 208 -53 170 -61 177 -110 93z"/>
<path d="M1216 420 c-6 -22 6 -80 17 -80 3 0 -2 62 -7 90 -2 9 -6 4 -10 -10z"/>
<path d="M1416 389 c-29 -35 -32 -55 -11 -83 22 -29 19 -36 -17 -37 l-33 -1
30 -9 c28 -9 182 -5 192 5 2 2 -24 7 -59 11 -35 4 -73 13 -85 21 -29 18 -30
62 -2 98 29 36 16 33 -15 -5z"/>
<path d="M794 376 c-33 -35 -171 -160 -190 -173 -13 -8 -56 -21 -96 -29 l-73
-14 70 5 c50 4 79 12 101 28 42 30 208 186 203 191 -2 2 -9 -1 -15 -8z"/>
<path d="M1245 318 c5 -13 45 -42 50 -36 1 2 -11 13 -26 26 -16 13 -27 17 -24
10z"/>
<path d="M1818 224 c-7 -6 -81 -27 -178 -51 -36 -9 -59 -18 -52 -20 13 -5 226
53 252 68 13 7 13 8 -1 9 -9 0 -18 -3 -21 -6z"/>
<path d="M1440 124 c-108 -27 -268 -66 -415 -99 -55 -13 -88 -23 -73 -24 15
-1 93 15 175 35 318 76 438 106 442 110 9 9 -39 1 -129 -22z"/>
</g>
</svg>
