<?xml version="1.0" standalone="no"?>
<!DOCTYPE svg PUBLIC "-//W3C//DTD SVG 20010904//EN"
 "http://www.w3.org/TR/2001/REC-SVG-20010904/DTD/svg10.dtd">
<svg version="1.0" xmlns="http://www.w3.org/2000/svg"
 width="720.000000pt" height="720.000000pt" viewBox="0 0 720.000000 720.000000"
 preserveAspectRatio="xMidYMid meet">
<metadata>
Created by potrace 1.11, written by Peter Selinger 2001-2013
</metadata>
<g transform="translate(0.000000,720.000000) scale(0.100000,-0.100000)"
fill="#000000" stroke="none">
<path d="M0 5931 l0 -1268 72 -67 c40 -37 107 -85 148 -107 146 -77 177 -125
171 -267 -1 -34 -19 -17 -27 26 -9 53 -49 107 -97 131 -23 11 -93 43 -154 70
l-113 49 0 -2039 0 -2039 28 0 c15 0 106 9 202 20 184 21 290 25 290 12 0 -23
-147 -172 -248 -251 -23 -18 -39 -38 -36 -43 11 -18 305 -3 348 17 19 9 75 55
123 102 49 46 107 100 130 119 23 19 46 48 51 64 12 32 13 33 191 55 69 9 132
20 140 25 23 13 14 13 -173 -15 -155 -22 -172 -27 -194 -51 -14 -14 -39 -32
-56 -39 -45 -19 -137 -28 -196 -20 l-51 7 5 52 c5 57 24 207 30 246 3 14 7 48
10 75 4 28 13 95 21 150 7 55 21 154 30 220 8 66 20 152 25 190 5 39 21 160
35 270 25 197 67 489 105 735 21 137 62 424 80 565 6 50 13 101 16 114 22 143
166 1267 219 1711 25 204 43 337 65 460 5 30 26 147 46 260 131 753 263 1241
434 1610 28 59 50 110 50 113 0 4 -387 7 -860 7 l-860 0 0 -1269z m400 -1813
c0 -64 -5 -60 -14 10 -5 37 -4 52 4 47 5 -3 10 -29 10 -57z m39 -225 c1 -7 -3
-13 -9 -13 -16 0 -40 56 -40 92 1 33 1 33 25 -17 13 -27 24 -56 24 -62z m89
-288 c-9 -9 38 -148 72 -215 22 -43 28 -65 22 -77 -9 -14 -10 -14 -16 4 -4 12
-21 39 -38 60 -17 21 -39 56 -49 78 -27 58 -24 155 4 155 6 0 8 -2 5 -5z m286
-3208 c-21 -17 -72 -63 -112 -102 -106 -101 -127 -111 -257 -123 -106 -10
-169 -7 -163 7 2 4 58 58 126 120 105 96 125 110 141 101 39 -20 215 -4 270
25 41 21 39 8 -5 -28z"/>
<path d="M2434 7135 c3 -36 9 -93 12 -127 l5 -63 -111 -124 c-199 -223 -377
-476 -491 -701 -40 -78 -38 -107 4 -54 91 116 517 414 556 389 6 -3 36 -43 67
-90 31 -46 62 -86 70 -89 9 -4 23 12 40 45 31 61 25 77 -7 20 -12 -23 -27 -41
-33 -41 -6 0 -38 41 -71 90 -33 50 -61 90 -63 90 -2 0 -49 -23 -105 -52 -107
-55 -240 -150 -367 -262 -41 -36 -78 -66 -83 -66 -5 0 0 15 11 33 11 17 32 55
47 82 95 170 350 525 377 525 4 0 8 -17 8 -37 0 -61 12 -113 25 -113 31 0 43
35 47 143 4 101 6 109 34 144 37 46 52 51 58 21 61 -285 87 -352 121 -317 8 8
31 116 55 254 23 132 47 252 52 267 6 17 30 37 70 58 32 18 57 34 54 37 -3 3
-28 -9 -56 -26 -65 -40 -86 -40 -95 -1 l-7 30 -85 0 -85 0 7 -67 c13 -126 36
-257 66 -375 27 -109 30 -168 9 -168 -24 0 -77 232 -107 468 -9 78 -22 142
-27 142 -5 0 -6 -28 -2 -65z m-94 -422 c0 -48 -3 -64 -10 -53 -17 26 -12 120
7 120 2 0 3 -30 3 -67z m0 -83 c0 -5 -5 -10 -11 -10 -5 0 -7 5 -4 10 3 6 8 10
11 10 2 0 4 -4 4 -10z"/>
<path d="M4960 7196 c0 -2 7 -6 15 -10 8 -3 15 -1 15 4 0 6 -7 10 -15 10 -8 0
-15 -2 -15 -4z"/>
<path d="M5268 7134 c-18 -36 -38 -68 -44 -71 -6 -2 -46 18 -90 45 -91 56
-124 74 -124 68 0 -2 30 -22 68 -44 95 -57 142 -103 142 -139 0 -16 4 -87 10
-159 5 -71 12 -178 16 -239 4 -60 9 -101 11 -90 2 11 24 92 48 180 61 227 74
287 85 400 5 55 10 103 10 108 0 4 -22 7 -49 7 l-49 0 -34 -66z"/>
<path d="M5462 7170 c-12 -164 -25 -249 -52 -341 -18 -57 -38 -125 -45 -150
-20 -75 -80 -204 -93 -201 -7 1 -12 -5 -12 -13 0 -25 17 -17 38 18 21 34 82
192 114 295 17 56 21 61 38 52 36 -19 47 -61 54 -200 5 -101 11 -141 24 -160
16 -25 17 -23 31 78 13 99 24 121 39 84 4 -9 33 -62 64 -117 80 -140 171 -345
212 -477 43 -137 67 -238 56 -238 -4 0 -20 19 -35 43 -30 45 -94 130 -217 286
-94 119 -190 211 -222 211 -17 0 -45 -25 -100 -90 -43 -49 -81 -90 -85 -90 -8
0 -16 17 -101 235 -94 241 -107 267 -148 296 -36 25 -72 42 -72 35 0 -2 20
-16 45 -30 50 -30 58 -42 110 -176 107 -274 148 -376 157 -385 6 -7 16 -1 30
15 133 166 151 184 176 176 24 -8 155 -145 212 -221 21 -27 46 -60 56 -71 11
-12 44 -57 74 -99 153 -216 173 -225 129 -59 -25 95 -96 309 -114 344 -7 14
-48 97 -91 185 -44 88 -89 174 -101 193 -13 18 -29 45 -37 60 -8 15 -46 70
-85 122 -45 59 -69 100 -65 110 16 41 24 128 21 217 -1 54 -4 82 -5 63z m84
-534 c-3 -32 -6 -77 -7 -100 l-1 -41 -9 35 c-4 19 -8 73 -8 120 1 77 2 83 16
65 11 -15 13 -35 9 -79z"/>
<path d="M6182 7163 c10 -38 7 -85 -18 -284 -8 -63 -19 -171 -24 -240 -5 -68
-16 -187 -25 -264 -8 -77 -19 -239 -25 -360 -14 -293 -47 -704 -65 -815 -2
-14 -11 -85 -20 -159 -14 -120 -44 -318 -120 -789 -20 -124 -65 -490 -100
-807 -4 -32 -8 -62 -10 -65 -1 -3 -6 -43 -9 -90 -4 -47 -15 -164 -26 -260 -10
-96 -22 -206 -25 -245 -3 -38 -10 -104 -15 -145 -5 -41 -12 -111 -15 -155 -3
-44 -13 -141 -20 -215 -8 -74 -17 -164 -20 -200 -3 -36 -10 -110 -16 -165 -5
-55 -12 -125 -14 -155 -3 -30 -7 -77 -10 -105 -2 -27 -7 -93 -10 -145 -3 -52
-10 -156 -15 -230 -14 -199 -29 -723 -30 -1039 0 -85 -2 -152 -4 -150 -3 2
-10 72 -16 154 -6 83 -13 177 -15 210 -53 650 -57 1882 -10 2810 8 154 19 381
25 505 6 124 17 353 25 510 42 792 60 1304 46 1255 -6 -16 -15 -154 -21 -305
-14 -371 -21 -473 -31 -463 -4 4 -22 42 -39 83 -18 41 -38 89 -46 105 -53 118
-211 587 -274 815 -51 183 -68 303 -70 493 0 26 -4 47 -10 47 -6 0 -8 -127 -5
-337 5 -452 -16 -829 -60 -1113 -8 -52 -23 -148 -32 -212 -16 -107 -20 -117
-41 -121 -12 -2 -25 -1 -27 3 -3 4 0 43 5 86 20 158 31 631 20 899 -10 260
-26 485 -35 494 -3 2 -5 -126 -5 -285 0 -439 -12 -605 -72 -971 l-33 -203 -26
0 c-14 0 -39 4 -55 10 -16 5 -58 11 -93 13 l-63 5 -3 373 c-2 278 -8 435 -23
614 -30 333 -41 449 -52 530 -5 39 -12 114 -16 168 -4 54 -10 99 -13 101 -4 3
-6 -212 -6 -477 0 -561 -13 -757 -80 -1175 -28 -172 -28 -175 -16 -168 4 3 11
24 15 46 5 32 13 44 34 53 15 7 47 25 70 40 55 36 69 31 64 -22 -3 -34 -10
-44 -40 -63 -19 -12 -31 -23 -24 -26 6 -2 22 4 36 14 25 16 26 15 26 -3 0 -10
-16 -35 -36 -54 -60 -58 -110 -160 -60 -124 45 33 141 95 148 95 4 0 4 -39 1
-86 l-6 -87 39 5 c31 4 45 0 67 -19 16 -13 33 -21 38 -17 5 3 9 -9 9 -25 0
-23 -5 -31 -18 -31 -10 0 -27 -7 -38 -15 -12 -8 -24 -11 -28 -8 -3 3 -6 0 -6
-8 -1 -10 -3 -9 -11 4 -5 9 -19 17 -29 17 -17 0 -20 -7 -20 -55 0 -30 9 -78
20 -107 11 -28 18 -53 16 -55 -2 -3 -21 3 -41 12 -21 8 -40 13 -43 10 -6 -6
37 -43 60 -50 9 -3 20 -20 23 -36 9 -38 23 -44 66 -27 49 19 85 12 109 -23 26
-35 34 -36 72 -4 42 35 111 35 134 0 22 -34 35 -32 87 13 31 27 60 42 103 51
110 25 230 123 281 231 15 32 31 59 36 59 4 1 4 -50 1 -111 -54 -1061 -62
-1185 -76 -1219 -26 -59 -138 -239 -212 -339 -100 -133 -182 -218 -300 -306
-137 -104 -463 -319 -701 -464 -14 -8 -79 -50 -146 -93 -198 -129 -263 -150
-397 -127 -65 11 -88 22 -289 149 -120 75 -285 177 -368 225 -356 211 -559
374 -692 556 -82 114 -220 369 -299 557 -37 88 -54 118 -54 95 0 -7 -6 -12
-14 -12 -19 0 -19 0 -65 1165 -7 187 -7 214 8 245 19 39 104 199 131 245 10
17 48 89 85 160 94 180 163 293 190 311 23 15 158 33 246 34 l47 0 6 -157 c4
-87 9 -184 12 -215 l5 -58 -56 0 c-71 0 -238 -18 -289 -31 -68 -18 -30 -22 56
-6 46 9 128 17 183 19 l100 3 0 -35 0 -35 -150 -6 c-207 -9 -312 -39 -432
-120 -50 -35 -67 -78 -57 -146 14 -101 97 -263 176 -342 61 -63 118 -96 214
-127 46 -14 84 -29 85 -33 7 -56 12 -58 59 -27 65 43 89 43 129 2 42 -43 55
-45 78 -10 26 40 59 48 104 25 l38 -20 38 34 c21 19 43 35 49 35 6 0 18 7 25
16 12 15 9 16 -40 9 l-54 -7 23 38 c13 22 30 49 38 61 22 35 52 201 52 291 0
45 3 82 6 82 11 0 68 -43 124 -93 30 -27 56 -45 58 -39 4 13 -20 60 -65 128
l-33 52 -118 18 c-64 9 -118 18 -119 19 -5 2 -43 321 -52 435 -19 236 -24 548
-12 710 13 160 38 386 48 430 4 19 3 22 -6 14 -14 -13 -31 -88 -60 -269 -56
-353 -74 -745 -47 -1074 10 -112 18 -209 19 -215 1 -6 -5 -9 -13 -7 -8 3 -27
4 -41 3 -25 -1 -27 2 -33 61 -3 35 -11 177 -17 317 -19 476 9 1058 67 1366 4
24 3 35 -3 31 -6 -4 -14 -32 -18 -63 -15 -121 -147 -499 -272 -779 -71 -160
-284 -596 -302 -620 -5 -5 -36 -64 -71 -130 -34 -66 -70 -131 -79 -145 -9 -14
-25 -43 -36 -64 l-20 -40 -6 85 c-8 93 5 567 22 842 9 159 8 200 -5 186 -2 -2
-11 -141 -20 -309 -26 -486 -23 -1061 9 -1605 3 -49 10 -218 15 -375 30 -840
84 -1659 139 -2100 21 -173 46 -385 56 -470 9 -85 20 -191 26 -235 5 -44 14
-127 19 -185 43 -451 42 -442 55 -429 2 3 -7 125 -21 273 -23 247 -23 271 -9
318 22 75 20 183 -4 217 l-19 26 69 75 c108 116 207 335 234 514 4 25 11 49
16 51 4 3 63 -50 131 -117 68 -68 139 -137 158 -153 92 -81 220 -189 243 -203
13 -10 51 -37 83 -62 33 -25 67 -49 76 -55 10 -5 62 -40 115 -76 54 -37 127
-82 163 -102 221 -120 254 -136 415 -205 177 -76 315 -120 461 -147 39 -8 89
-18 110 -24 78 -21 279 -34 429 -28 140 6 241 22 308 48 46 19 70 13 147 -37
42 -27 94 -57 117 -68 46 -20 63 -52 63 -116 0 -21 3 -58 6 -84 l7 -46 138 0
139 0 0 35 c0 46 14 45 131 0 50 -20 96 -34 102 -32 6 2 -36 20 -94 41 -57 21
-112 46 -121 55 -15 14 -23 85 -19 172 1 15 8 15 76 3 103 -18 160 2 207 74
21 31 25 131 6 150 -21 21 -4 20 72 -4 41 -14 145 -45 230 -70 85 -25 164 -51
175 -58 11 -7 49 -65 84 -128 63 -114 154 -236 179 -237 20 -1 14 13 -19 45
-49 46 -179 242 -179 270 0 3 14 -6 30 -20 50 -42 105 -51 260 -43 31 2 39 -4
85 -63 71 -92 172 -196 181 -187 4 4 -19 36 -53 70 -63 64 -133 152 -133 167
0 4 42 -3 93 -16 50 -13 93 -24 95 -24 1 0 2 1575 2 3500 l0 3500 -130 0 -130
0 -1 -252 c-2 -664 3 -2542 6 -2548 9 -15 19 -860 20 -1655 0 -921 -3 -1114
-19 -1134 -10 -13 -11 -199 0 -233 5 -17 -10 -26 -19 -10 -2 4 -2 2 -1 -5 2
-6 -2 -14 -9 -17 -9 -3 -9 -5 1 -5 8 -1 12 -19 12 -57 0 -49 -2 -55 -15 -44
-8 7 -15 20 -15 29 0 14 2 14 10 1 5 -8 10 -10 10 -5 0 6 -4 15 -10 21 -5 5
-14 41 -20 79 -53 331 -109 783 -145 1155 -8 85 -21 220 -29 300 -9 80 -20
208 -26 285 -5 77 -19 262 -30 410 -11 149 -29 452 -40 675 -11 223 -24 450
-30 505 -5 55 -17 190 -25 300 -9 110 -31 340 -50 510 -63 580 -69 666 -91
1468 l-6 227 -123 0 -123 0 10 -37z m-1652 -1413 c16 -133 40 -456 36 -466 -1
-1 -21 -5 -45 -9 l-44 -7 6 113 c4 63 10 212 13 332 4 119 8 216 10 214 2 -2
13 -81 24 -177z m-1893 -52 c-4 -90 -7 -205 -7 -255 l0 -93 -27 0 c-16 0 -79
-11 -140 -23 -62 -13 -113 -21 -113 -19 0 4 54 102 80 147 10 17 33 59 52 95
19 36 43 81 54 100 18 31 33 65 81 178 7 17 16 32 20 32 3 0 3 -73 0 -162z
m150 -123 c-1 -190 -3 -205 -19 -205 -22 0 -23 18 -3 235 8 88 15 163 15 168
0 4 2 7 4 7 3 0 4 -92 3 -205z m2363 79 c0 -23 51 -169 110 -319 5 -11 28 -66
53 -122 29 -66 40 -103 32 -103 -7 0 -41 13 -76 29 -35 16 -83 35 -107 42 -23
7 -46 17 -51 23 -5 6 -5 51 0 106 7 78 14 220 18 348 1 24 21 21 21 -4z m-190
-329 c0 -50 -4 -85 -10 -85 -11 0 -14 111 -4 148 11 39 14 24 14 -63z m-2155
-236 c15 -188 16 -222 4 -230 -12 -7 -11 -10 3 -21 25 -19 34 -66 15 -74 -29
-11 -57 14 -57 51 0 20 5 35 12 35 6 0 4 6 -6 13 -17 12 -19 35 -24 230 -5
210 -4 217 15 217 18 0 21 -14 38 -221z m1765 -49 c0 -149 0 -150 -22 -150
-13 -1 -40 -7 -61 -14 -20 -8 -39 -11 -41 -7 -4 6 21 260 29 299 5 19 12 22
50 22 l45 0 0 -150z m389 37 c-1 -56 -4 -142 -8 -192 -6 -89 -6 -90 -33 -93
-33 -4 -33 -3 -18 113 5 44 14 122 19 172 6 51 13 98 16 103 16 27 25 -10 24
-103z m307 33 c53 -16 99 -32 103 -35 11 -6 144 -274 171 -345 18 -45 21 -66
15 -117 -4 -35 -8 -63 -9 -63 -2 0 -42 18 -90 40 -92 43 -189 71 -325 95 -46
8 -85 16 -87 18 -2 1 -1 13 3 25 4 18 13 22 47 23 l41 1 -44 10 c-40 9 -43 12
-38 36 3 15 13 95 22 177 9 83 19 156 21 164 5 17 40 11 170 -29z m-333 -349
c4 -1 7 -15 7 -32 0 -28 -2 -30 -32 -27 -27 2 -32 7 -30 23 5 36 11 43 29 40
10 -2 21 -4 26 -4z m-2581 -185 c2 -69 6 -127 9 -130 3 -3 19 -7 35 -7 61 -3
95 -19 101 -50 5 -28 6 -41 1 -37 -2 2 -14 -5 -28 -15 -13 -9 -37 -17 -53 -17
-25 0 -27 -3 -22 -22 11 -36 56 -129 83 -171 14 -20 22 -40 19 -44 -17 -16
-104 23 -149 68 -76 76 -177 313 -193 451 -6 50 -4 58 14 67 20 11 106 28 153
30 l26 1 4 -124z m3023 -22 c66 -11 75 -20 75 -69 0 -24 -6 -64 -14 -87 -8
-24 -22 -70 -31 -103 -54 -190 -156 -309 -285 -330 -50 -8 -50 -13 8 59 30 38
85 147 105 211 23 72 47 209 47 269 0 59 6 69 35 62 11 -2 38 -8 60 -12z
m-2522 -246 c22 -11 26 -19 25 -51 -1 -22 -8 -42 -17 -48 -13 -9 -12 -10 6 -6
15 3 20 1 16 -9 -3 -8 -1 -14 5 -14 17 0 21 -42 6 -71 -8 -16 -24 -31 -37 -33
-64 -14 -108 -17 -190 -17 -73 0 -97 4 -117 19 -33 25 -36 52 -11 93 12 19 21
30 21 24 0 -7 3 -7 8 0 18 25 82 47 151 53 68 5 75 3 91 -18 16 -21 19 -22 40
-7 22 15 22 15 2 26 -12 6 -27 11 -35 11 -9 0 -17 12 -19 30 -5 34 9 39 55 18z
m2143 -130 c42 -15 48 -30 23 -57 -15 -16 -16 -21 -5 -21 8 0 15 -8 15 -17 1
-10 3 -34 7 -54 4 -27 1 -40 -12 -54 -16 -16 -32 -17 -143 -12 -141 5 -183 17
-200 53 -13 30 -15 81 -2 88 5 3 7 16 4 29 -4 18 -3 19 6 7 10 -13 12 -13 21
0 6 10 10 11 10 3 0 -19 27 -16 38 3 8 14 21 16 77 12 41 -4 62 -2 54 3 -11 7
-11 9 3 9 9 0 22 -8 27 -17 9 -16 10 -16 11 3 0 37 14 41 66 22z m1959 -2888
c3 -5 1 -10 -4 -10 -6 0 -11 5 -11 10 0 6 2 10 4 10 3 0 8 -4 11 -10z m-20
-80 c3 -5 -1 -10 -9 -10 -9 0 -16 5 -16 10 0 6 4 10 9 10 6 0 13 -4 16 -10z
m12 -162 c-3 -8 -6 -5 -6 6 -1 11 2 17 5 13 3 -3 4 -12 1 -19z m-4753 -260 c9
-36 7 -166 -3 -173 -9 -5 -14 17 -26 138 -5 46 -4 57 8 57 8 0 17 -10 21 -22z
m3712 -223 c111 20 217 -81 185 -178 -15 -44 -51 -80 -59 -57 -10 30 -94 98
-162 131 l-70 33 0 42 0 42 36 -10 c20 -5 52 -7 70 -3z m-425 -127 c11 -4 33
-188 23 -197 -2 -2 -12 3 -21 11 -10 9 -27 18 -39 22 -16 5 -148 86 -161 100
-2 1 23 16 54 32 32 16 69 37 81 46 20 15 26 15 38 4 7 -8 19 -16 25 -18z
m415 -13 c67 -38 117 -88 112 -114 -4 -23 -123 -28 -172 -7 l-36 15 0 70 c0
85 5 87 96 36z"/>
<path d="M5158 4743 c7 -3 16 -2 19 1 4 3 -2 6 -13 5 -11 0 -14 -3 -6 -6z"/>
<path d="M5201 4736 c7 -7 138 -46 154 -46 18 0 -19 20 -55 29 -61 16 -105 24
-99 17z"/>
<path d="M4954 4115 c10 -8 23 -12 28 -9 14 9 -2 24 -25 24 -21 -1 -21 -1 -3
-15z"/>
<path d="M3670 7004 c-277 -25 -546 -97 -727 -195 -149 -81 -175 -103 -213
-177 -19 -38 -54 -106 -78 -151 -24 -46 -41 -85 -39 -87 6 -6 49 67 91 155 62
131 82 154 176 209 195 114 415 185 680 218 202 25 545 16 732 -20 158 -30
348 -88 463 -141 146 -68 185 -85 185 -81 0 13 -151 85 -309 146 -86 33 -267
78 -407 101 -125 20 -439 33 -554 23z"/>
<path d="M1537 6604 c-9 -15 -34 -145 -46 -244 -32 -252 -41 -784 -21 -1185 6
-110 12 -250 15 -312 2 -61 6 -126 9 -145 11 -71 16 -228 7 -228 -4 0 -19 15
-31 34 -34 48 -130 106 -130 77 0 -5 13 -11 29 -14 30 -6 88 -59 110 -101 12
-21 10 -31 -12 -78 -39 -83 -67 -175 -67 -216 0 -47 17 -95 80 -225 27 -58 50
-110 50 -116 0 -6 4 -11 9 -11 18 0 40 -90 55 -225 22 -189 22 -186 -16 -134
-36 49 -40 55 -111 182 -27 48 -51 86 -54 83 -7 -7 90 -183 149 -273 49 -74
49 -75 63 -201 16 -144 52 -510 65 -652 5 -52 16 -166 25 -253 16 -146 16
-171 1 -340 -42 -469 -59 -621 -112 -997 -8 -58 -19 -136 -24 -175 -16 -126
-39 -239 -51 -246 -7 -4 -42 -10 -78 -14 -83 -8 -211 -37 -211 -47 0 -4 7 -5
15 -2 19 8 20 9 -15 -60 -34 -66 -36 -91 -16 -141 29 -68 139 -102 296 -92
104 7 256 61 340 121 27 20 52 36 54 36 2 0 7 -27 11 -61 9 -78 -2 -91 -113
-125 -101 -30 -411 -109 -607 -154 -256 -58 -294 -68 -255 -69 81 -2 918 209
957 241 23 19 31 -3 38 -110 4 -60 11 -115 17 -123 9 -13 4 174 -6 251 -2 14
-7 63 -10 110 -15 187 -80 809 -132 1250 -33 287 -91 833 -119 1135 -37 398
-65 689 -75 775 -24 216 -85 877 -101 1085 -36 488 -50 1248 -29 1550 10 135
29 278 51 377 11 48 9 82 -4 62z m353 -5904 c0 -5 -2 -10 -4 -10 -3 0 -8 5
-11 10 -3 6 -1 10 4 10 6 0 11 -4 11 -10z m-20 -25 c25 -13 29 -21 32 -72 2
-32 4 -59 3 -60 -1 -1 -18 2 -38 8 -36 10 -101 4 -207 -20 -62 -13 -184 -75
-225 -114 -43 -40 -54 -85 -30 -121 l17 -26 -48 6 c-61 8 -118 39 -133 71 -24
52 -5 133 39 171 35 30 98 52 174 62 126 17 195 36 271 74 78 39 103 43 145
21z m3 -146 c20 -5 37 -13 38 -17 0 -4 2 -18 4 -32 5 -43 -68 -100 -197 -155
-99 -42 -121 -48 -178 -47 -119 2 -154 36 -111 106 34 54 184 124 311 145 77
12 90 12 133 0z"/>
<path d="M4107 6560 c-6 -15 -22 -211 -52 -625 -8 -110 -17 -231 -20 -270 -9
-131 -55 -710 -65 -820 -16 -184 -23 -340 -15 -333 3 3 17 152 31 330 13 178
30 409 38 513 9 105 20 262 27 350 11 163 22 233 32 205 2 -8 13 -60 22 -115
10 -55 24 -131 31 -170 29 -153 36 -307 33 -697 -2 -215 0 -373 4 -352 4 21
10 147 14 280 7 298 -12 787 -48 1249 -6 77 -14 214 -18 305 -4 91 -10 158
-14 150z"/>
<path d="M3374 6459 c-4 -7 -11 -29 -15 -48 -4 -20 -21 -97 -39 -171 -52 -227
-95 -511 -125 -840 -15 -165 -33 -810 -22 -800 5 5 13 44 16 74 1 5 9 2 19 -6
9 -9 38 -19 63 -22 45 -7 47 -6 54 21 9 39 -58 170 -102 198 -17 11 -33 26
-35 34 -6 26 12 345 20 353 7 6 106 -22 118 -35 3 -3 14 -77 25 -164 22 -190
43 -326 65 -422 38 -169 20 -13 -36 309 -53 306 -53 1159 1 1458 11 62 9 86
-7 61z m-53 -796 c0 -202 -3 -367 -8 -366 -4 1 -30 11 -57 22 l-49 22 7 97
c12 173 46 404 73 504 15 53 29 95 31 93 2 -2 4 -169 3 -372z"/>
<path d="M3516 5893 c-40 -193 -56 -722 -32 -1048 9 -121 21 -236 26 -255 10
-37 10 -33 -10 255 -10 147 -13 332 -5 324 2 -3 11 -66 20 -140 27 -233 69
-465 87 -484 7 -7 8 -3 4 10 -12 43 -65 376 -76 480 -27 261 -23 738 7 863 3
12 1 22 -5 22 -6 0 -13 -12 -16 -27z"/>
<path d="M3938 5250 c-4 -14 -16 -155 -28 -315 -12 -159 -23 -319 -26 -355 -4
-47 -2 -61 5 -49 6 9 22 170 36 359 24 321 28 425 13 360z"/>
<path d="M4325 5033 c-6 -96 -29 -344 -41 -453 -5 -38 -3 -52 4 -45 21 21 71
570 53 588 -5 5 -12 -34 -16 -90z"/>
<path d="M3806 4684 c-7 -120 -5 -157 8 -143 8 10 16 279 8 279 -5 0 -13 -61
-16 -136z"/>
<path d="M1395 4741 c-78 -49 -115 -125 -136 -279 -13 -98 -7 -246 16 -349 23
-111 113 -353 130 -353 7 0 -5 51 -15 65 -4 6 -24 53 -43 105 -56 151 -71 243
-72 420 0 137 3 164 24 230 19 59 34 84 68 118 24 23 52 42 63 42 10 0 22 5
25 10 10 17 -28 11 -60 -9z"/>
<path d="M3160 4582 c0 -12 19 -26 26 -19 2 2 -2 10 -11 17 -9 8 -15 8 -15 2z"/>
<path d="M3703 3970 c0 -25 2 -35 4 -22 2 12 2 32 0 45 -2 12 -4 2 -4 -23z"/>
<path d="M3652 3647 c-26 -73 -8 -315 23 -303 9 3 11 -3 8 -17 -4 -22 -4 -22
12 -2 30 36 8 355 -24 355 -4 0 -12 -15 -19 -33z"/>
<path d="M3160 2701 c0 -31 207 -119 359 -152 99 -22 94 -21 87 -10 -3 4 -24
11 -46 15 -59 9 -204 52 -242 72 -18 9 -58 32 -89 50 -60 36 -69 39 -69 25z"/>
<path d="M4317 2672 c-9 -10 -51 -35 -93 -56 -87 -44 -216 -70 -402 -82 -62
-4 -109 -10 -105 -15 11 -10 239 8 335 26 162 32 288 89 288 130 0 19 -3 19
-23 -3z"/>
<path d="M3622 436 c-16 -25 -44 -77 -63 -118 -19 -40 -62 -128 -96 -195 l-62
-123 93 0 94 0 10 68 c18 107 23 134 33 159 18 48 26 11 21 -107 l-4 -120 101
0 c66 0 101 4 101 11 0 6 -21 63 -46 127 -26 65 -59 159 -75 209 -46 152 -60
163 -107 89z"/>
</g>
</svg>
